<?xml version="1.0" standalone="no"?>
<!DOCTYPE svg PUBLIC "-//W3C//DTD SVG 20010904//EN"
 "http://www.w3.org/TR/2001/REC-SVG-20010904/DTD/svg10.dtd">
<svg version="1.0" xmlns="http://www.w3.org/2000/svg"
 width="1130.000000pt" height="1080.000000pt" viewBox="0 0 1130.000000 1080.000000"
 preserveAspectRatio="xMidYMid meet">

<g transform="translate(0.000000,1080.000000) scale(0.100000,-0.100000)"
fill="#000000" stroke="none">
<path d="M5550 10730 c-151 -8 -192 -12 -445 -45 -294 -39 -716 -144 -1008
-251 -245 -90 -626 -261 -737 -329 -19 -12 -91 -55 -160 -95 -412 -242 -737
-497 -1095 -862 -230 -234 -251 -258 -414 -466 -504 -647 -861 -1441 -1016
-2257 -26 -137 -54 -344 -70 -513 -17 -188 -21 -748 -5 -900 25 -241 34 -308
61 -469 49 -295 97 -485 197 -788 53 -158 88 -251 183 -475 37 -87 202 -406
261 -505 97 -162 112 -186 174 -279 321 -484 786 -973 1263 -1325 390 -287
924 -576 1316 -709 50 -17 136 -47 193 -66 136 -48 480 -137 637 -166 170 -32
209 -37 435 -64 188 -23 539 -39 685 -32 220 11 427 26 500 37 39 5 106 14
150 19 82 11 101 14 285 51 333 66 723 188 1050 328 183 79 502 242 623 319
51 32 129 82 174 110 453 282 977 769 1332 1239 274 362 535 825 698 1238 258
651 373 1257 373 1965 0 826 -168 1569 -519 2296 -204 420 -435 777 -749 1152
-87 105 -426 443 -557 556 -711 613 -1551 1025 -2445 1200 -151 29 -211 38
-530 76 -114 14 -648 20 -840 10z m790 -169 c269 -27 369 -41 568 -80 543
-107 1179 -355 1647 -644 209 -129 480 -322 619 -441 264 -227 435 -392 558
-539 51 -61 112 -131 134 -156 112 -124 363 -488 484 -701 305 -537 505 -1097
610 -1700 99 -572 91 -1253 -20 -1835 -89 -461 -260 -957 -473 -1369 -157
-304 -373 -636 -575 -884 -34 -42 -81 -99 -103 -127 -61 -76 -411 -426 -523
-524 -142 -123 -315 -258 -463 -359 -100 -69 -122 -83 -268 -170 -199 -119
-209 -125 -360 -200 -475 -237 -1017 -406 -1540 -481 -332 -47 -446 -54 -808
-48 -344 5 -466 15 -742 58 -499 77 -1018 242 -1471 467 -144 71 -213 109
-414 227 -181 107 -476 324 -680 500 -126 109 -465 444 -505 500 -16 22 -46
58 -66 80 -122 130 -413 548 -537 770 -71 129 -236 471 -286 593 -115 279
-213 600 -271 887 -87 427 -127 899 -106 1254 19 318 50 590 91 781 6 25 19
90 31 145 104 494 318 1031 595 1496 372 625 856 1153 1429 1559 521 369 1004
599 1645 784 255 74 615 134 995 166 122 10 674 4 805 -9z"/>
<path d="M5555 10439 c-251 -24 -324 -33 -488 -60 -536 -88 -983 -237 -1474
-489 -237 -122 -428 -240 -673 -415 -237 -169 -621 -520 -783 -715 -38 -47
-75 -89 -81 -95 -67 -61 -376 -490 -461 -640 -244 -431 -387 -750 -493 -1105
-167 -553 -232 -1033 -218 -1615 20 -842 217 -1557 647 -2340 49 -91 222 -359
297 -460 178 -243 467 -576 593 -685 35 -30 96 -85 136 -121 123 -114 422
-349 531 -416 33 -21 118 -74 189 -119 265 -167 668 -358 968 -459 270 -91
618 -177 860 -213 39 -6 100 -16 136 -21 37 -6 86 -11 110 -11 24 0 64 -5 89
-11 60 -14 797 -14 898 -1 42 6 151 21 242 32 870 114 1753 494 2441 1051 127
102 390 341 458 415 30 33 87 93 126 134 215 227 519 652 677 950 25 47 64
120 87 163 81 151 213 475 285 693 313 962 326 2022 37 2984 -58 193 -98 306
-171 485 -58 140 -226 477 -307 615 -318 541 -763 1047 -1262 1435 -92 72
-367 265 -377 265 -2 0 -30 17 -61 37 -254 163 -701 372 -1043 486 -417 140
-810 215 -1290 247 -178 12 -493 11 -625 -1z m700 -79 c696 -64 1228 -211
1824 -506 332 -163 584 -322 876 -553 279 -220 603 -541 779 -770 22 -29 52
-68 66 -86 415 -536 727 -1191 888 -1865 88 -366 132 -744 132 -1140 0 -330
-24 -591 -86 -930 -121 -655 -416 -1349 -812 -1910 -207 -293 -501 -624 -731
-825 -57 -49 -129 -112 -161 -140 -32 -27 -83 -68 -115 -90 -31 -22 -77 -57
-102 -78 -47 -39 -284 -197 -386 -258 -33 -19 -84 -49 -115 -67 -109 -64 -438
-221 -587 -280 -206 -83 -270 -104 -497 -168 -380 -106 -669 -153 -1144 -185
-320 -21 -888 28 -1219 106 -33 7 -104 24 -158 35 -55 12 -133 33 -175 46 -43
13 -95 29 -117 36 -89 25 -309 105 -420 153 -16 7 -55 23 -85 36 -194 80 -559
280 -765 419 -860 578 -1520 1413 -1875 2370 -215 581 -309 1110 -310 1735 0
804 177 1538 545 2252 335 650 805 1213 1385 1658 121 93 389 274 507 344 131
77 448 234 593 294 489 202 927 307 1520 366 123 12 616 13 745 1z"/>
<path d="M4485 9918 c-19 -23 -24 -37 -19 -52 4 -12 8 -52 8 -90 l1 -69 45
-32 c40 -28 45 -36 48 -75 2 -32 -2 -51 -17 -71 -12 -16 -21 -33 -21 -38 0 -6
-19 -20 -42 -32 -66 -33 -158 -100 -158 -115 0 -18 18 -27 65 -34 64 -8 59
-36 -21 -115 l-67 -67 13 -57 c15 -70 36 -121 50 -121 24 0 58 26 121 91 36
38 69 69 73 69 8 0 2 -165 -9 -242 -10 -68 15 -64 51 10 16 31 33 56 39 55 5
-1 23 -37 40 -81 16 -44 37 -91 46 -104 16 -23 17 -23 38 -4 33 30 28 99 -19
233 -26 75 -38 123 -34 141 4 19 -2 46 -17 77 l-23 48 28 21 c15 12 43 35 64
52 29 25 42 30 60 23 20 -8 22 -15 22 -89 l0 -81 -35 -20 c-41 -25 -43 -38
-12 -75 18 -20 29 -25 45 -20 31 10 80 53 97 86 15 29 55 216 55 257 0 40 -42
73 -93 73 -37 0 -48 -5 -82 -40 -21 -22 -43 -40 -47 -40 -4 0 -31 -16 -58 -36
-28 -20 -54 -34 -57 -30 -4 4 15 28 41 55 38 38 47 53 41 70 -3 11 -13 21 -21
21 -20 0 -17 23 7 53 24 31 17 50 -32 91 l-31 26 26 31 c32 38 32 40 1 77 -14
17 -25 34 -25 40 0 5 21 20 46 33 31 17 50 35 60 58 13 32 13 36 -5 54 -27 28
-56 17 -124 -48 -31 -30 -62 -55 -67 -55 -13 0 -13 27 0 35 14 9 13 58 -2 73
-23 23 -65 14 -93 -20z m103 -484 c-2 -15 -12 -33 -24 -41 -18 -12 -23 -11
-33 1 -11 13 -8 20 15 41 34 32 46 32 42 -1z m-48 -227 c0 -19 -88 -109 -102
-105 -7 3 -15 18 -16 34 -3 24 4 36 39 66 34 29 46 35 61 27 10 -5 18 -15 18
-22z"/>
<path d="M5970 9939 c0 -6 -11 -24 -25 -41 -43 -51 -38 -69 108 -363 88 -178
95 -191 112 -205 8 -7 15 -20 15 -30 0 -10 7 -20 15 -24 8 -3 15 -14 15 -26 0
-12 17 -32 42 -51 40 -28 48 -30 108 -26 109 7 193 38 198 72 2 15 -10 27 -52
48 -83 43 -290 270 -369 404 -22 38 -48 77 -58 89 -11 11 -19 24 -19 28 0 23
-63 136 -76 136 -7 0 -14 -5 -14 -11z"/>
<path d="M7673 9833 c-6 -16 12 -147 23 -164 19 -32 114 25 114 68 0 65 -117
147 -137 96z"/>
<path d="M5661 9762 c-29 -15 -40 -33 -83 -142 -68 -172 -89 -218 -119 -259
-20 -28 -25 -45 -21 -74 5 -41 22 -48 58 -23 33 24 121 158 165 253 74 158 84
203 51 241 -18 20 -20 21 -51 4z"/>
<path d="M4360 9715 c-38 -26 -65 -31 -75 -15 -3 6 -28 10 -55 10 -44 0 -50
-3 -56 -24 -3 -14 -3 -33 0 -44 4 -11 -1 -46 -10 -78 -32 -119 -35 -134 -24
-154 17 -31 35 -24 87 35 l49 55 31 -35 c38 -43 63 -44 86 -6 13 23 16 42 10
90 -5 53 -3 65 14 84 39 43 47 67 27 88 -22 25 -41 23 -84 -6z"/>
<path d="M7197 9693 c-14 -13 -6 -32 36 -82 l42 -51 79 0 78 0 -6 -26 c-4 -15
-26 -54 -50 -88 -59 -85 -61 -93 -28 -121 15 -14 32 -25 37 -25 6 0 16 -9 22
-19 10 -15 9 -22 -1 -30 -18 -15 -78 -5 -180 30 -107 37 -115 27 -28 -33 35
-24 62 -34 108 -39 130 -13 334 -93 334 -131 0 -30 -66 -143 -115 -196 -66
-72 -102 -95 -128 -81 -23 13 -37 3 -37 -26 0 -55 99 -62 175 -14 67 42 178
151 229 224 52 75 59 91 45 116 -13 25 -88 59 -149 69 -63 11 -150 43 -150 56
0 6 30 44 68 85 86 96 132 154 132 169 0 7 -8 25 -17 41 -9 15 -14 31 -10 35
4 4 50 -3 102 -15 90 -22 97 -22 121 -6 16 10 24 24 22 37 -5 35 -79 47 -290
48 -126 0 -188 4 -190 11 -2 6 -21 15 -43 19 -22 5 -74 18 -115 29 -85 23 -84
23 -93 14z m398 -143 c8 -13 -30 -92 -55 -115 -23 -21 -39 -13 -20 10 8 10 11
33 8 65 l-5 50 33 0 c18 0 36 -5 39 -10z m-158 -226 c-3 -3 -12 -4 -19 -1 -8
3 -5 6 6 6 11 1 17 -2 13 -5z"/>
<path d="M3382 9278 c-19 -19 -37 -23 -139 -29 -150 -9 -213 -25 -213 -51 0
-6 -8 -20 -17 -31 -17 -18 -17 -19 1 -32 35 -26 99 -29 144 -6 44 22 78 26
101 12 10 -7 1 -29 -45 -101 -74 -117 -132 -182 -184 -205 -22 -10 -40 -21
-40 -25 0 -3 13 -19 29 -34 27 -26 31 -27 72 -16 51 14 155 113 183 175 48
108 110 211 152 250 53 50 56 115 6 115 -15 0 -38 -10 -50 -22z"/>
<path d="M7004 9273 c-4 -16 -17 -41 -29 -58 -25 -34 -65 -110 -65 -123 0 -11
45 -32 70 -32 20 0 84 62 105 104 13 25 12 30 -23 81 -20 30 -40 55 -44 55 -4
0 -11 -12 -14 -27z"/>
<path d="M7170 9131 c-15 -28 -12 -114 4 -136 11 -16 17 -17 29 -7 16 14 30 3
41 -35 8 -24 76 -56 101 -47 10 4 15 20 15 50 0 41 2 44 28 44 53 0 102 20
102 41 0 35 -80 63 -171 61 -69 -2 -78 0 -99 23 -28 30 -36 31 -50 6z m120
-61 c0 -5 -6 -10 -14 -10 -8 0 -18 5 -21 10 -3 6 3 10 14 10 12 0 21 -4 21
-10z"/>
<path d="M3578 9103 c-16 -2 -28 -9 -28 -14 0 -6 -17 -30 -37 -55 -35 -42 -40
-44 -89 -44 -81 0 -138 -29 -119 -60 3 -5 1 -11 -5 -15 -5 -3 -10 -16 -10 -29
0 -21 18 -35 63 -50 20 -6 23 -51 6 -93 -36 -88 -41 -95 -57 -87 -9 4 -34 9
-55 12 -20 2 -40 8 -43 13 -9 16 -54 10 -61 -8 -4 -10 -1 -19 6 -21 24 -8 51
-46 51 -72 0 -15 14 -47 31 -71 40 -56 120 -139 134 -139 18 0 55 75 55 112 0
24 -8 42 -25 58 -16 15 -25 34 -25 54 0 42 52 197 65 193 10 -4 24 -21 148
-183 124 -162 238 -284 265 -284 22 0 24 3 19 29 -4 16 -24 58 -46 94 -22 36
-50 85 -62 109 -12 23 -35 59 -50 78 -16 19 -29 45 -29 59 0 24 16 91 30 126
24 57 26 132 5 182 -8 20 -15 46 -15 59 0 43 -42 59 -122 47z m7 -133 c25 -10
26 -11 23 -92 -3 -75 -5 -83 -22 -80 -17 3 -59 45 -78 77 -8 13 8 71 25 93 11
15 18 15 52 2z"/>
<path d="M8747 9046 c-20 -13 -76 -31 -122 -41 -47 -10 -88 -21 -91 -26 -2 -4
-41 -8 -87 -8 -66 0 -84 -3 -94 -17 -27 -37 -9 -74 37 -74 l25 0 -25 -20 c-20
-16 -41 -20 -113 -20 l-88 0 -15 -35 c-7 -19 -14 -50 -14 -69 0 -33 -2 -35
-52 -49 -29 -9 -62 -17 -73 -19 -34 -6 -65 -65 -65 -126 l0 -54 99 4 c62 2
105 9 115 17 13 11 20 11 41 -3 13 -9 29 -25 35 -36 22 -41 46 -43 112 -11 90
45 104 43 122 -21 38 -143 44 -167 38 -172 -15 -15 -61 -2 -138 40 -46 25 -88
44 -93 42 -4 -2 0 -22 10 -45 20 -48 118 -121 175 -130 41 -7 51 -23 60 -96 6
-50 5 -55 -15 -62 -16 -5 -21 -14 -21 -41 0 -37 48 -134 66 -134 17 0 44 45
44 73 0 14 7 42 16 63 10 24 17 70 18 118 l2 79 54 30 c30 16 67 40 82 54 37
35 67 102 61 136 -7 33 11 57 43 57 67 0 183 69 204 121 12 29 11 33 -18 61
-19 20 -46 34 -74 39 -146 28 -326 77 -372 101 -32 17 -83 116 -63 123 6 2 45
5 84 8 60 4 79 9 108 32 43 32 60 70 48 104 -11 33 -22 34 -66 7z m-318 -277
c24 -9 35 -9 44 0 19 19 34 12 41 -19 4 -21 20 -40 51 -62 25 -17 45 -35 45
-39 0 -10 -113 -49 -142 -49 -14 0 -38 -6 -54 -14 -16 -8 -65 -17 -108 -20
-44 -4 -88 -14 -100 -21 -17 -12 -22 -13 -35 -1 -9 8 -25 16 -36 18 -32 6 -23
30 17 44 20 7 52 19 70 27 18 8 51 20 73 27 56 18 65 27 65 70 0 54 10 59 69
39z m481 -198 c0 -13 -115 -48 -186 -56 -59 -6 -62 -8 -72 -41 -9 -30 -8 -36
11 -49 12 -8 26 -15 32 -15 5 0 21 -9 34 -19 23 -18 23 -18 5 -40 -26 -31 -67
-51 -104 -51 -25 0 -30 4 -30 23 0 12 -18 58 -40 101 -22 43 -40 81 -40 85 0
13 49 31 83 31 18 0 38 5 44 11 6 6 26 15 45 19 47 11 218 12 218 1z"/>
<path d="M5675 8758 c-361 -26 -641 -86 -970 -210 -254 -95 -578 -271 -770
-418 -48 -36 -99 -74 -113 -85 -72 -53 -237 -203 -327 -296 -186 -194 -389
-463 -497 -659 -232 -421 -361 -817 -419 -1285 -18 -149 -15 -622 5 -765 29
-210 45 -294 91 -466 107 -405 319 -832 568 -1150 18 -22 51 -65 73 -95 67
-88 381 -400 484 -481 354 -278 700 -461 1125 -593 168 -52 209 -61 440 -98
203 -32 264 -38 455 -44 465 -14 979 89 1414 284 167 75 188 85 296 148 295
172 484 319 728 564 523 523 847 1196 937 1943 21 173 20 617 -1 781 -107 840
-496 1571 -1129 2122 -58 50 -140 114 -315 243 -44 32 -292 178 -370 217 -92
46 -209 97 -315 136 -44 16 -89 33 -100 38 -60 26 -308 92 -415 111 -36 6 -85
15 -110 20 -90 17 -209 30 -377 40 -187 11 -210 11 -388 -2z m509 -99 c452
-53 798 -153 1156 -333 377 -190 717 -453 985 -762 333 -384 563 -819 690
-1309 220 -847 91 -1743 -359 -2485 -38 -63 -79 -128 -90 -144 -64 -90 -160
-214 -222 -287 -75 -88 -308 -322 -359 -360 -16 -13 -51 -41 -76 -64 -166
-146 -532 -361 -797 -469 -659 -267 -1388 -311 -2072 -126 -1067 289 -1921
1119 -2240 2175 -99 328 -158 737 -146 1005 14 278 47 513 106 745 192 751
635 1389 1278 1843 450 318 961 506 1547 571 117 12 493 13 599 0z"/>
<path d="M5521 7834 c-116 -34 -208 -85 -299 -164 l-77 -66 -3 -517 -2 -518
-38 8 c-59 13 -250 7 -332 -11 -121 -25 -243 -92 -339 -184 l-81 -79 0 -1564
0 -1564 79 -79 80 -79 1065 -5 1066 -5 0 642 0 641 395 0 395 0 0 1775 c0 976
-1 1775 -3 1775 -2 0 -38 -20 -80 -44 -202 -115 -385 -131 -757 -66 -80 14
-125 23 -320 65 -246 52 -272 55 -480 60 -176 5 -189 4 -269 -21z m451 -354
c112 -22 168 -35 328 -75 91 -23 197 -48 235 -55 39 -7 81 -16 95 -21 30 -10
264 -16 370 -9 l75 5 3 -1388 2 -1387 -220 0 -220 0 2 1015 c2 558 2 1015 1
1015 -2 0 -24 -16 -50 -36 -117 -89 -239 -124 -435 -124 -73 0 -164 5 -203 10
-106 15 -357 61 -380 70 -11 5 -38 11 -60 14 -22 3 -69 12 -105 20 -36 7 -91
17 -123 21 l-57 7 0 364 0 364 63 46 c81 60 164 102 257 130 63 19 99 23 222
23 81 1 171 -4 200 -9z m-884 -1266 l52 -7 0 -881 0 -881 71 -77 71 -78 504 0
504 0 -2 -510 -3 -509 -920 -2 -920 -1 -8 179 c-4 98 -6 712 -4 1365 l4 1187
28 27 c71 66 201 141 285 165 78 22 249 33 338 23z m235 -38 c34 -8 145 -35
247 -60 286 -68 356 -78 522 -73 78 2 155 8 171 12 l27 7 0 -756 0 -756 -530
0 -530 0 0 820 c0 733 2 820 15 820 9 0 44 -7 78 -14z"/>
<path d="M5260 3753 c-8 -3 -29 -18 -47 -34 -17 -15 -41 -30 -52 -34 -12 -3
-21 -11 -21 -17 0 -10 16 -8 53 7 16 7 17 -3 17 -114 l0 -121 -25 0 c-14 0
-25 -4 -25 -10 0 -6 40 -10 101 -10 64 0 98 4 94 10 -3 6 -19 10 -36 10 l-29
0 0 160 c0 88 -3 160 -7 159 -5 0 -15 -3 -23 -6z"/>
<path d="M4651 3737 c-25 -12 -68 -83 -58 -94 3 -3 21 11 40 31 41 43 77 47
101 11 9 -13 16 -34 16 -46 0 -26 -52 -98 -114 -159 -25 -24 -46 -48 -46 -52
0 -5 53 -7 118 -6 l117 3 2 45 c3 44 2 44 -13 23 -14 -20 -25 -23 -86 -23 -65
0 -69 1 -57 17 8 9 31 29 53 45 77 55 102 113 75 172 -19 41 -98 59 -148 33z"/>
<path d="M4922 3730 c-42 -26 -62 -74 -62 -150 0 -103 49 -166 127 -163 59 2
89 31 108 104 17 61 7 130 -26 185 -29 48 -91 58 -147 24z m88 -10 c11 -7 16
-35 18 -120 5 -137 0 -156 -35 -163 -51 -10 -53 -5 -53 142 0 76 3 141 7 144
9 10 46 8 63 -3z"/>
<path d="M5445 3720 c-20 -16 -45 -32 -56 -35 -10 -4 -19 -11 -19 -16 0 -12
10 -11 41 5 l26 13 7 -75 c3 -41 6 -97 6 -124 0 -47 -1 -48 -30 -48 -16 0 -30
-4 -30 -10 0 -6 38 -10 95 -10 57 0 95 4 95 10 0 6 -12 10 -27 10 l-28 0 3
155 4 155 -25 0 c-13 0 -41 -13 -62 -30z"/>
<path d="M2260 8274 c-67 -36 -150 -109 -150 -130 0 -7 8 -15 19 -19 10 -3 26
-14 36 -25 16 -18 16 -21 0 -64 -17 -45 -35 -53 -35 -15 0 16 -7 19 -40 19
-50 0 -109 -29 -145 -71 -24 -30 -25 -33 -9 -42 10 -6 44 -11 77 -12 32 -2 63
-7 68 -12 13 -13 -11 -103 -27 -103 -6 0 -22 -8 -34 -18 l-23 -19 24 -16 c13
-10 38 -17 56 -17 39 0 54 19 87 116 32 94 58 145 70 141 7 -2 11 -36 11 -83
l0 -79 42 0 c23 0 44 -3 48 -7 4 -4 -1 -30 -11 -58 -18 -49 -19 -50 -58 -50
-23 0 -47 -4 -55 -9 -17 -11 -9 -34 46 -142 18 -36 33 -71 33 -77 0 -17 75
-15 90 3 8 9 10 30 6 60 -3 25 -9 64 -12 88 -4 32 1 64 20 122 14 44 26 87 26
97 0 9 10 20 23 24 36 11 57 35 58 68 1 55 33 131 57 134 18 3 20 8 16 35 -3
18 -7 38 -10 45 -5 16 -84 15 -106 -1 -9 -7 -33 -48 -54 -90 -30 -64 -41 -77
-60 -77 -17 0 -29 10 -42 36 -18 34 -18 40 -2 105 11 46 25 78 44 98 32 34 33
75 1 78 -11 1 -49 -14 -85 -33z"/>
<path d="M9475 8200 c-3 -5 -15 -10 -26 -10 -16 0 -19 -7 -19 -55 0 -42 -6
-64 -22 -88 -55 -77 -101 -127 -136 -144 -28 -14 -38 -26 -44 -53 -9 -43 -2
-67 20 -74 18 -6 49 -57 54 -90 2 -15 -12 -24 -76 -47 -43 -16 -84 -33 -90
-38 -6 -5 -51 -30 -101 -56 -162 -87 -197 -115 -141 -115 14 0 28 -4 31 -10
10 -16 57 -12 127 10 34 11 73 20 84 20 12 0 59 18 105 39 46 22 101 44 121
49 37 10 38 10 79 -39 23 -27 51 -69 63 -92 33 -65 65 -60 111 18 9 15 16 16
55 5 25 -6 70 -29 102 -51 117 -81 163 -31 124 134 -15 65 -40 96 -104 134
-36 21 -43 30 -40 52 2 17 10 27 23 29 49 7 64 13 88 38 31 31 34 57 11 115
-25 62 -81 78 -109 31 -19 -31 -76 -72 -103 -72 -24 0 -141 96 -152 125 -6 15
-4 42 6 76 18 69 18 103 -1 139 -16 31 -29 37 -40 20z m19 -335 c27 -18 51
-67 43 -88 -3 -7 -26 -22 -52 -31 -39 -15 -51 -16 -70 -6 -36 19 -36 31 -2 88
34 56 45 61 81 37z m191 -222 c30 -33 32 -59 6 -73 -34 -18 -80 -12 -106 15
-32 31 -31 46 3 67 40 24 68 21 97 -9z"/>
<path d="M3095 7980 c-11 -5 -37 -9 -58 -9 -40 -1 -77 -15 -77 -30 0 -5 13
-14 29 -21 38 -15 43 -40 22 -103 -22 -62 -104 -213 -133 -244 -38 -41 -79
-21 -93 45 -8 38 -29 50 -57 33 -15 -9 -20 -8 -25 5 -8 22 13 108 40 161 17
33 19 47 11 60 -16 26 -59 28 -93 4 -16 -12 -35 -21 -43 -21 -27 0 -89 -27
-112 -49 -36 -34 -79 -119 -72 -144 8 -32 43 -67 67 -67 24 0 64 80 54 110 -5
16 -2 20 14 20 18 0 21 -6 21 -49 0 -87 -20 -149 -62 -192 -21 -21 -38 -43
-38 -48 0 -20 31 -33 64 -27 46 9 55 -6 58 -99 3 -79 3 -80 31 -83 16 -2 43 6
63 19 40 25 39 9 15 189 -12 97 13 130 49 64 17 -30 57 -42 106 -30 38 10 174
209 259 379 42 84 44 90 29 113 -17 25 -35 29 -69 14z"/>
<path d="M2118 6926 c-57 -24 -89 -70 -134 -196 -13 -36 -24 -80 -24 -97 0
-30 -3 -33 -29 -33 -16 0 -50 9 -75 20 l-46 19 0 55 c0 72 -6 86 -40 86 -35 0
-47 -15 -56 -70 -5 -36 -18 -57 -60 -102 -30 -31 -54 -61 -54 -67 0 -14 34
-31 62 -31 30 0 58 -45 58 -94 0 -46 -18 -47 -72 -5 -53 43 -87 119 -109 249
-10 58 -19 111 -19 118 0 6 -7 12 -15 12 -8 0 -24 5 -35 12 -10 7 -22 9 -26 6
-4 -4 -6 -39 -5 -78 2 -78 -4 -83 -61 -54 -30 16 -31 15 -59 -13 -64 -65 -121
-218 -88 -239 6 -3 35 19 64 50 30 31 58 56 63 56 5 0 17 -8 26 -19 9 -10 30
-21 45 -24 27 -6 28 -9 34 -79 6 -69 -2 -169 -18 -229 -9 -35 10 -46 37 -22
25 22 75 125 84 171 3 17 8 32 11 32 31 0 154 -116 168 -159 4 -14 24 -30 52
-42 56 -24 66 -24 88 1 18 20 18 23 2 73 -88 280 -88 282 31 237 29 -11 69
-20 90 -20 21 0 46 -6 56 -13 17 -13 17 -17 -13 -75 -46 -92 -40 -119 14 -62
51 53 133 78 161 50 21 -21 144 42 144 74 0 7 -16 31 -35 54 -39 44 -81 61
-204 81 -35 6 -74 17 -87 26 -51 33 -38 109 25 150 39 24 93 66 154 116 58 49
48 77 -26 71 -10 -1 -26 2 -35 7 -10 5 -28 4 -44 -3z"/>
<path d="M10055 6915 c-17 -8 -64 -14 -107 -15 -70 0 -79 -2 -93 -24 -18 -27
-11 -56 15 -56 9 0 25 -9 35 -20 11 -12 31 -20 52 -20 20 0 33 -5 33 -13 0 -7
16 -37 35 -67 19 -30 35 -66 35 -80 0 -14 12 -86 26 -160 39 -202 38 -194 25
-186 -7 4 -23 26 -37 48 -21 33 -29 39 -50 34 -18 -5 -24 -2 -24 10 0 9 -16
51 -36 93 -37 78 -46 140 -23 167 10 12 5 14 -29 14 -38 0 -41 -2 -65 -52
l-26 -52 30 -33 c38 -43 37 -60 -1 -33 -43 31 -70 23 -98 -28 -19 -34 -27 -40
-37 -32 -27 23 -64 143 -67 217 -2 40 -5 73 -9 73 -18 0 -60 -29 -69 -48 -14
-31 -13 -49 6 -102 18 -50 44 -153 40 -157 -2 -2 -23 0 -48 3 -39 6 -48 11
-62 41 -19 40 -21 92 -4 128 25 55 -20 43 -60 -16 -13 -19 -33 -36 -44 -39
-44 -11 -44 -34 -2 -95 48 -71 98 -115 128 -115 42 0 88 -22 105 -51 10 -16
40 -40 67 -54 42 -21 51 -23 63 -11 12 13 11 20 -3 55 -19 48 -20 61 -5 61 6
0 22 9 36 20 47 37 107 18 118 -37 11 -62 82 -67 105 -7 5 13 14 24 20 24 5 0
10 -1 10 -3 0 -1 9 -27 20 -57 11 -30 20 -72 20 -93 0 -50 54 -157 79 -157 39
0 71 69 71 154 0 29 -4 56 -9 62 -11 10 -42 119 -71 244 -23 100 -67 241 -81
255 -16 16 -10 73 11 107 19 32 29 119 13 117 -5 0 -21 -7 -38 -14z"/>
<path d="M10193 6768 c-24 -17 -43 -40 -43 -49 0 -44 95 -64 163 -35 39 16 63
42 72 79 l7 27 -58 0 c-33 0 -68 2 -79 5 -12 3 -36 -7 -62 -27z"/>
<path d="M10286 6494 c-62 -60 -63 -71 -7 -94 25 -10 34 -8 69 14 31 19 41 33
46 63 4 21 9 46 12 56 4 14 -1 17 -29 17 -28 0 -45 -10 -91 -56z"/>
<path d="M10203 6422 c-8 -5 -3 -27 18 -72 42 -90 48 -100 102 -170 45 -57 50
-61 85 -58 35 3 37 5 42 43 3 22 9 45 13 51 3 6 0 20 -8 30 -12 16 -17 17 -35
6 -18 -11 -25 -11 -44 2 -38 24 -146 137 -146 151 0 18 -13 26 -27 17z"/>
<path d="M2015 6213 c37 -98 28 -163 -25 -163 -19 0 -30 -5 -30 -14 0 -16 46
-56 64 -56 21 0 131 58 164 86 l34 29 -23 43 c-20 36 -27 42 -55 42 -18 0 -36
-4 -39 -10 -11 -18 -22 -11 -44 25 -21 36 -59 51 -46 18z"/>
<path d="M2090 5131 c0 -27 -4 -30 -52 -40 -74 -16 -223 -34 -293 -35 -60 -1
-60 -1 -73 34 l-12 35 5 -45 c22 -205 32 -247 68 -301 34 -52 88 -74 177 -73
103 1 165 36 206 116 17 32 17 41 -2 266 -6 70 -24 102 -24 43z m0 -174 c0
-91 -19 -122 -94 -158 -33 -16 -76 -29 -95 -29 -92 0 -167 55 -182 132 -14 77
-8 84 79 93 42 4 106 11 142 15 36 4 84 8 108 8 l42 2 0 -63z"/>
<path d="M10060 5112 c0 -4 14 -13 30 -19 44 -17 62 -65 50 -137 -5 -31 -12
-61 -15 -66 -8 -13 -111 -12 -255 3 l-115 12 -3 33 c-2 17 -7 32 -11 32 -7 0
-31 -141 -31 -182 0 -29 18 -21 22 9 2 18 10 29 23 32 11 2 97 -2 190 -9 174
-13 205 -22 205 -59 0 -9 3 -11 9 -5 5 5 11 79 14 165 l6 157 -51 21 c-55 23
-68 25 -68 13z"/>
<path d="M9839 4715 c-60 -15 -123 -67 -150 -123 -28 -61 -22 -125 17 -189 73
-121 268 -139 376 -36 33 32 50 79 51 143 2 130 -156 240 -294 205z m154 -91
c139 -47 146 -209 10 -243 -65 -17 -158 -5 -224 28 -45 24 -56 34 -67 68 -19
58 -2 117 41 143 41 25 172 27 240 4z"/>
<path d="M1858 4616 c-80 -39 -118 -99 -118 -186 0 -81 42 -146 119 -185 26
-13 53 -16 115 -13 69 2 88 7 127 32 80 51 120 158 89 240 -12 34 -77 104
-111 122 -45 23 -165 18 -221 -10z m250 -65 c97 -49 76 -178 -35 -223 -109
-44 -174 -49 -238 -18 -46 22 -65 53 -65 104 0 42 19 96 33 96 6 0 18 7 28 16
47 42 213 57 277 25z"/>
<path d="M2200 4237 c0 -18 -6 -41 -13 -51 -13 -18 -255 -102 -324 -113 -25
-4 -32 -1 -38 16 -3 12 -11 21 -16 21 -12 0 -12 -3 5 -47 8 -21 18 -51 22 -68
l8 -30 5 35 c6 35 6 35 131 77 135 45 150 49 150 33 0 -6 -48 -83 -106 -172
-109 -165 -122 -188 -108 -188 9 0 58 15 129 40 58 21 208 66 248 74 23 6 29
2 39 -21 10 -24 12 -25 15 -8 5 28 -29 117 -47 123 -13 5 -13 3 -1 -11 28 -34
1 -47 -247 -122 -22 -6 -22 -5 8 44 16 28 58 93 92 143 83 123 90 138 84 171
-3 15 -9 41 -12 57 -8 40 -24 38 -24 -3z"/>
<path d="M9723 4250 c-57 -23 -101 -61 -122 -104 -24 -51 -28 -138 -8 -171 69
-116 177 -164 292 -130 157 45 205 236 88 348 -55 51 -188 82 -250 57z m145
-82 c56 -14 129 -79 137 -122 8 -42 -15 -99 -49 -121 -55 -36 -160 -28 -256
20 -63 32 -82 57 -87 112 -6 63 26 115 77 124 42 8 119 2 178 -13z"/>
<path d="M9508 3814 c-34 -78 -37 -104 -8 -69 7 8 18 15 25 15 26 0 145 -59
145 -72 0 -7 -17 -48 -38 -90 l-37 -77 -75 37 c-72 36 -75 38 -72 70 1 17 -2
32 -8 32 -5 0 -10 -6 -10 -12 0 -7 -16 -44 -34 -83 -36 -74 -39 -93 -8 -55
l19 24 159 -69 c87 -37 167 -75 177 -83 9 -8 17 -27 18 -41 0 -19 10 -6 39 54
46 93 48 106 17 77 -13 -12 -28 -22 -34 -22 -21 0 -158 59 -157 67 0 4 14 39
32 76 18 38 32 74 32 79 0 15 44 4 113 -26 54 -24 57 -28 57 -61 0 -19 3 -35
8 -35 10 0 83 170 72 170 -5 0 -16 -10 -24 -22 l-15 -21 -173 74 c-172 74
-173 74 -174 106 0 18 -2 34 -5 37 -2 2 -21 -34 -41 -80z"/>
<path d="M2188 3721 c-71 -15 -141 -78 -159 -144 -15 -56 3 -160 36 -206 42
-59 62 -81 77 -81 7 0 49 14 92 31 l80 31 18 -24 c28 -36 23 -1 -12 79 -17 39
-29 59 -30 46 0 -20 -42 -63 -61 -63 -5 0 -30 -10 -55 -21 l-46 -22 -31 32
c-29 29 -32 37 -32 96 0 61 2 66 40 106 60 61 102 79 185 79 89 0 122 -16 149
-73 31 -64 25 -113 -19 -157 -33 -33 -17 -35 44 -5 54 26 74 49 39 43 -15 -3
-19 7 -23 57 -8 88 -42 141 -115 178 -37 19 -128 28 -177 18z"/>
<path d="M9332 3430 c11 -17 7 -24 -29 -57 -56 -51 -73 -90 -73 -163 0 -47 5
-69 24 -99 73 -115 212 -155 322 -91 57 32 87 72 105 140 11 41 10 50 -12 94
-13 28 -29 52 -36 54 -8 2 -6 -8 5 -30 39 -77 3 -184 -72 -212 -51 -20 -60
-20 -123 -1 -68 20 -146 84 -167 136 -20 49 -9 103 28 146 21 25 33 29 98 33
67 5 71 7 45 18 -15 6 -47 21 -71 32 -55 25 -59 25 -44 0z"/>
<path d="M2365 3297 c-88 -53 -125 -111 -125 -194 0 -63 21 -115 72 -176 60
-71 63 -71 152 -26 55 28 86 39 102 35 32 -8 30 3 -11 64 -19 29 -35 56 -35
61 0 5 -4 9 -10 9 -5 0 -7 -13 -4 -28 7 -32 1 -38 -83 -88 -31 -19 -62 -33
-69 -30 -6 2 -25 21 -40 42 -78 102 3 251 156 286 69 16 118 3 161 -42 47 -50
57 -96 29 -147 -35 -65 -26 -68 45 -16 48 36 49 37 25 43 -20 5 -26 14 -30 42
-7 47 -53 118 -97 148 -32 22 -49 25 -127 27 -57 1 -99 -3 -111 -10z"/>
<path d="M9100 3061 c0 -5 6 -12 13 -15 9 -5 9 -7 -1 -12 -27 -13 -73 -58 -88
-87 -47 -89 16 -179 114 -163 20 3 77 22 126 42 l88 36 27 -19 c49 -37 40
-100 -19 -139 -40 -26 -47 -27 -122 -8 -37 9 -36 -10 1 -26 16 -6 41 -24 56
-40 29 -31 45 -31 45 -1 0 9 25 42 55 73 52 53 55 58 55 108 0 44 -4 56 -29
81 -43 42 -107 41 -208 -6 -95 -44 -149 -47 -163 -9 -15 38 -13 49 15 82 29
34 75 46 124 32 32 -9 62 -3 34 7 -6 2 -32 20 -57 39 -45 34 -66 42 -66 25z"/>
<path d="M2760 3021 c0 -6 5 -13 10 -16 28 -17 6 -47 -87 -116 -132 -97 -162
-126 -174 -172 -12 -46 -1 -82 44 -140 78 -100 153 -91 336 42 80 58 122 74
136 51 7 -12 25 -13 25 -2 0 12 -102 124 -107 118 -3 -3 2 -14 10 -26 8 -12
13 -29 10 -38 -5 -18 -121 -106 -202 -154 -82 -49 -160 -29 -195 51 -18 39
-18 44 -3 75 16 35 25 43 163 146 86 63 106 70 136 43 31 -28 20 2 -21 53 -21
27 -43 59 -50 72 -12 22 -31 30 -31 13z"/>
<path d="M8807 2669 c-37 -39 -67 -74 -67 -77 0 -2 12 3 26 13 24 15 27 15 52
-1 43 -27 112 -85 112 -93 0 -11 -120 -141 -130 -141 -17 0 -120 103 -120 120
0 10 7 23 15 30 16 13 20 30 8 30 -5 0 -36 -32 -71 -70 -44 -49 -56 -67 -39
-59 33 15 63 -6 201 -139 85 -81 106 -107 101 -122 -4 -11 -3 -20 1 -20 11 0
114 113 108 119 -2 3 -10 -1 -16 -7 -20 -20 -45 -13 -89 26 -91 80 -90 65 -18
140 35 37 65 68 66 70 1 3 31 -22 67 -54 65 -59 76 -80 54 -102 -6 -6 -9 -14
-6 -17 3 -3 35 25 71 62 67 69 78 89 32 59 -26 -17 -26 -17 -108 50 -114 93
-197 175 -197 194 0 9 5 21 11 27 6 6 9 17 7 23 -2 6 -34 -21 -71 -61z"/>
<path d="M3145 2506 c-33 -13 -125 -49 -204 -81 -95 -37 -154 -55 -173 -53
-15 3 -28 2 -28 -2 0 -12 80 -84 86 -77 4 4 1 14 -7 23 -16 20 -1 33 61 54
l41 13 55 -54 c48 -46 54 -58 50 -82 -9 -47 -43 -86 -69 -80 -16 4 -6 -11 40
-58 59 -60 89 -75 61 -30 -11 18 -10 30 8 79 31 80 132 324 144 344 20 35 16
35 -65 4z m-65 -142 l-31 -68 -46 47 c-26 25 -44 49 -41 52 3 4 37 19 75 34
49 21 69 25 71 16 2 -7 -11 -44 -28 -81z"/>
<path d="M8496 2372 c-3 -6 -3 -17 0 -26 4 -11 0 -16 -13 -16 -23 0 -99 -48
-130 -81 -33 -36 -56 -114 -48 -164 5 -38 38 -100 77 -145 19 -23 80 -49 131
-56 37 -5 55 -1 110 25 75 36 157 118 157 157 0 15 -19 45 -50 79 -53 59 -56
65 -40 96 7 12 7 19 1 19 -13 0 -125 -98 -130 -113 -2 -9 0 -8 10 1 28 27 56
13 109 -53 50 -63 51 -65 35 -89 -57 -86 -191 -88 -283 -3 -38 35 -72 111 -72
162 0 37 6 51 35 83 45 51 90 64 152 46 25 -8 48 -13 49 -11 2 2 -18 25 -45
51 -27 26 -51 43 -55 38z"/>
<path d="M3365 2330 c35 -39 0 -99 -164 -280 l-50 -55 -30 17 c-46 26 -37 3
12 -31 24 -16 49 -36 56 -45 22 -27 31 -18 14 13 -17 28 -16 30 12 64 17 20
57 69 90 111 l60 75 6 -72 c4 -40 7 -134 8 -209 1 -110 4 -138 15 -138 7 0 38
30 67 66 30 37 77 92 105 124 29 32 60 70 70 85 17 26 25 27 68 10 32 -14 14
10 -41 54 -57 44 -59 45 -42 7 10 -22 6 -31 -47 -96 -33 -40 -74 -92 -91 -117
l-33 -45 0 202 c0 113 -4 209 -10 220 -9 18 -69 60 -85 60 -5 0 0 -9 10 -20z"/>
<path d="M8145 2082 c-22 -15 -56 -39 -75 -54 l-35 -28 36 6 c29 5 38 2 52
-17 16 -25 37 -54 141 -199 l59 -83 -23 -19 c-49 -39 -8 -27 61 19 71 47 72
48 41 51 -21 2 -39 13 -54 33 -13 16 -35 44 -49 62 -14 18 -51 70 -82 116
l-57 83 21 29 c25 36 15 36 -36 1z"/>
<path d="M3811 1993 c43 -51 41 -59 -45 -213 l-81 -145 -45 -5 -45 -5 37 -13
c20 -7 53 -24 73 -37 l35 -25 -13 28 c-17 35 -14 49 37 135 23 40 49 87 57
105 27 62 36 43 73 -149 14 -75 26 -146 26 -157 0 -24 20 -72 30 -72 3 0 16
19 28 43 12 23 30 56 40 72 10 17 39 69 66 118 59 108 71 121 108 113 15 -3
28 -4 28 -2 0 7 -109 66 -121 66 -7 0 -4 -9 7 -21 18 -20 18 -21 -6 -62 -13
-23 -43 -77 -66 -121 -48 -90 -55 -88 -74 25 -6 35 -16 91 -21 124 -6 33 -14
81 -18 107 -9 57 -6 54 -72 85 -44 20 -50 21 -38 6z"/>
<path d="M7928 1942 c-71 -39 -84 -52 -43 -44 14 2 32 -1 40 -8 23 -19 77
-119 72 -133 -2 -7 -17 -19 -33 -27 -16 -8 -46 -25 -66 -37 -21 -13 -44 -23
-51 -23 -14 0 -87 115 -87 136 0 6 7 17 15 24 40 33 7 27 -66 -12 -80 -42 -81
-43 -47 -46 30 -3 38 -10 68 -60 18 -31 44 -74 57 -94 12 -21 23 -40 23 -42 0
-2 16 -28 35 -57 19 -30 35 -58 35 -63 0 -5 -10 -21 -22 -34 -27 -29 -25 -29
75 23 42 22 77 44 77 48 0 5 -7 6 -15 3 -8 -3 -21 -9 -29 -12 -9 -3 -29 19
-60 69 -25 40 -46 79 -46 84 0 6 20 21 45 33 24 12 61 33 81 46 20 14 37 24
39 22 1 -2 18 -33 39 -69 39 -72 45 -113 19 -128 -10 -6 -13 -10 -8 -10 6 -1
48 22 95 49 51 30 77 50 65 50 -12 0 -26 -5 -32 -11 -16 -16 -58 39 -140 182
-75 130 -81 147 -61 167 21 21 -5 12 -74 -26z"/>
<path d="M4245 1687 c-53 -29 -63 -39 -92 -97 -52 -105 -43 -177 33 -255 53
-55 104 -69 188 -54 57 9 71 17 115 59 39 37 53 60 67 106 16 54 15 61 -1 113
-20 63 -88 141 -123 141 -11 0 -24 5 -27 10 -13 21 -99 9 -160 -23z m208 -30
c39 -30 49 -82 31 -158 -24 -103 -66 -165 -127 -188 -51 -20 -85 -13 -125 23
-36 33 -37 36 -37 103 1 83 37 167 93 213 47 39 121 42 165 7z"/>
<path d="M7223 1611 c-97 -38 -126 -55 -77 -45 19 4 34 1 41 -8 22 -26 133
-314 133 -344 0 -7 -12 -17 -27 -22 -20 -7 -22 -11 -10 -11 11 -1 53 11 95 27
60 21 71 28 50 30 -14 2 -31 9 -36 15 -11 13 -62 144 -62 158 0 20 39 7 100
-34 129 -86 143 -92 194 -77 55 15 87 44 39 34 -33 -7 -72 10 -163 70 -30 20
-58 37 -63 39 -5 1 4 17 22 34 24 25 31 40 31 71 0 54 -7 70 -41 87 -47 25
-124 17 -226 -24z m171 -22 c51 -61 24 -139 -53 -150 -21 -4 -27 4 -57 73
l-33 76 37 16 c55 23 77 19 106 -15z"/>
<path d="M4897 1520 c-37 -11 -55 -27 -74 -63 -14 -28 -13 -33 15 -87 l29 -57
-32 -12 c-76 -27 -100 -97 -56 -160 37 -51 106 -66 175 -37 62 26 73 114 21
181 -31 41 -31 41 -1 49 14 3 40 21 60 39 34 32 35 35 24 71 -20 63 -93 98
-161 76z m100 -31 c7 -6 13 -28 13 -48 -1 -38 -21 -70 -57 -90 -19 -10 -25 -7
-47 21 -39 53 -42 82 -11 114 21 21 32 25 57 20 17 -3 37 -11 45 -17z m-55
-277 c21 -39 22 -44 8 -70 -13 -22 -24 -28 -57 -30 -56 -4 -83 22 -83 79 0 34
6 47 36 77 l36 36 19 -25 c10 -13 29 -43 41 -67z"/>
<path d="M6865 1511 c-154 -69 -166 -291 -21 -388 41 -28 57 -33 107 -33 69 0
112 15 161 59 112 98 72 307 -70 367 -47 19 -129 17 -177 -5z m135 -21 c77
-39 126 -209 87 -303 -18 -43 -68 -77 -114 -77 -41 0 -97 47 -123 105 -60 132
-43 243 44 281 42 18 60 17 106 -6z"/>
<path d="M6543 1442 c-40 -8 -73 -19 -73 -23 0 -5 11 -7 25 -3 21 5 25 2 30
-23 4 -15 9 -35 12 -43 2 -8 15 -80 29 -158 26 -152 24 -172 -18 -172 -10 0
-17 -4 -14 -9 3 -5 24 -4 48 1 24 6 64 12 91 15 49 5 68 23 21 20 -29 -2 -33
7 -61 168 -6 33 -17 90 -24 126 -14 75 -9 99 20 99 11 0 23 5 26 10 8 13 -22
11 -112 -8z"/>
<path d="M5334 1426 c-44 -20 -64 -52 -64 -107 0 -43 4 -49 46 -85 122 -104
156 -142 149 -166 -4 -13 -12 -29 -17 -35 -14 -18 -93 -16 -128 2 -36 19 -50
43 -50 89 0 20 -4 36 -8 36 -10 0 -32 -90 -32 -132 0 -30 0 -31 20 -13 16 14
23 15 34 6 8 -7 36 -19 62 -27 133 -40 238 84 153 180 -17 20 -59 56 -95 81
-64 46 -79 70 -72 116 4 30 56 45 104 29 36 -12 74 -68 74 -109 0 -11 5 -23
10 -26 6 -4 10 11 10 37 0 24 4 58 10 77 9 31 8 33 -14 27 -14 -3 -42 2 -68
14 -50 23 -81 24 -124 6z"/>
<path d="M6355 1411 c-57 -6 -58 -7 -33 -18 29 -13 34 -25 42 -118 4 -33 9
-84 12 -112 4 -29 3 -53 -2 -53 -5 0 -72 63 -149 140 l-140 140 -35 -10 c-19
-6 -48 -10 -64 -10 -35 0 -27 -12 10 -16 54 -6 65 -35 84 -242 12 -127 8 -152
-26 -152 -8 0 -14 -4 -14 -10 0 -6 9 -6 26 0 14 6 48 10 75 10 27 0 49 5 49
10 0 6 -13 10 -30 10 -34 0 -34 -1 -50 145 -6 54 -13 110 -16 122 -4 13 -2 23
4 23 6 0 80 -65 165 -145 86 -80 157 -145 159 -145 4 0 -5 108 -21 283 -7 65
-9 122 -6 127 3 6 15 10 26 10 10 0 19 5 19 10 0 6 -6 9 -12 8 -7 -1 -40 -4
-73 -7z"/>
<path d="M5630 1391 l25 -7 3 -186 c2 -180 2 -188 -18 -198 -11 -6 -25 -8 -30
-5 -6 3 -10 0 -10 -7 0 -7 10 -13 23 -14 12 0 88 -4 170 -8 124 -6 147 -5 147
7 0 7 7 28 16 46 24 47 11 61 -17 18 l-24 -37 -95 2 -95 3 -3 35 c-2 19 -1 59
3 88 l7 53 71 -3 c68 -3 72 -4 75 -28 7 -49 20 -41 27 16 4 33 9 67 12 78 7
26 -19 16 -32 -12 -9 -20 -17 -22 -82 -22 -83 0 -80 -5 -67 108 l7 52 73 0
c61 0 78 -4 94 -20 11 -11 20 -27 20 -35 0 -8 5 -15 10 -15 6 0 9 20 9 44 l-2
43 -96 7 c-124 8 -254 6 -221 -3z"/>
<path d="M4563 1222 c-22 -36 15 -64 61 -46 21 8 20 27 -2 47 -24 22 -44 21
-59 -1z"/>
</g>
</svg>
